<?xml version="1.0" encoding="UTF-8" standalone="no"?>
<!-- Created with Inkscape (http://www.inkscape.org/) -->

<svg
   width="2.5906234mm"
   height="3.402643mm"
   viewBox="0 0 2.5906234 3.402643"
   version="1.1"
   id="svg1"
   inkscape:version="1.3.2 (091e20e, 2023-11-25, custom)"
   sodipodi:docname="icons.svg"
   inkscape:export-filename="icons.svg"
   inkscape:export-xdpi="96"
   inkscape:export-ydpi="96"
   xml:space="preserve"
   xmlns:inkscape="http://www.inkscape.org/namespaces/inkscape"
   xmlns:sodipodi="http://sodipodi.sourceforge.net/DTD/sodipodi-0.dtd"
   xmlns="http://www.w3.org/2000/svg"
   xmlns:svg="http://www.w3.org/2000/svg"><sodipodi:namedview
     id="namedview1"
     pagecolor="#ffffff"
     bordercolor="#000000"
     borderopacity="0.25"
     inkscape:showpageshadow="2"
     inkscape:pageopacity="0.0"
     inkscape:pagecheckerboard="0"
     inkscape:deskcolor="#d1d1d1"
     inkscape:document-units="mm"
     inkscape:zoom="4.568294"
     inkscape:cx="10.507205"
     inkscape:cy="34.257865"
     inkscape:window-width="1600"
     inkscape:window-height="837"
     inkscape:window-x="-8"
     inkscape:window-y="-8"
     inkscape:window-maximized="1"
     inkscape:current-layer="layer1" /><defs
     id="defs1" /><g
     inkscape:label="Camada 1"
     inkscape:groupmode="layer"
     id="layer1"
     transform="translate(-16.778323,-0.14534865)"><path
       style="fill:#000000;stroke-width:0.423061"
       d="M 19.089422,3.5419227 C 19.026013,3.5239341 18.99081,3.4918018 18.953628,3.4179692 18.908021,3.3274053 18.813148,3.2192375 18.709485,3.139614 18.44001,2.9326291 18.010187,2.7817096 17.726407,2.7944352 c -0.121536,0.00545 -0.183406,0.032114 -0.216774,0.093422 -0.02725,0.050068 -0.06154,0.084135 -0.105773,0.1050959 -0.103006,0.048809 -0.226471,0.00606 -0.281524,-0.097465 -0.01557,-0.029269 -0.01768,-0.04082 -0.0177,-0.096432 -1.1e-5,-0.053525 0.0024,-0.067753 0.01568,-0.093106 0.02194,-0.041818 0.07556,-0.090735 0.114716,-0.1046415 l 0.03252,-0.011551 -0.0017,-1.1739004 -0.0017,-1.17390037 h -0.14631 c -0.08047,0 -0.154309,0.002242 -0.164086,0.004986 -0.02351,0.006595 -0.05671,0.0350502 -0.0693,0.0593979 -0.01308,0.0252864 -0.01338,0.0781629 -5.92e-4,0.1026493 0.0318,0.0609014 0.09451,0.083785 0.154708,0.0564466 0.03319,-0.0150741 0.05436,-0.0408863 0.06444,-0.0785778 l 0.0076,-0.028519 h 0.0461 0.0461 l -0.0039,0.0327339 c -0.01185,0.10007227 -0.105504,0.18008067 -0.21079,0.18008067 -0.08233,0 -0.155841,-0.0479607 -0.191423,-0.12489328 -0.02354,-0.0508987 -0.02456,-0.12188158 -0.0025,-0.17105193 0.01944,-0.0432496 0.06755,-0.091744 0.110145,-0.11102853 l 0.03386,-0.01533 1.215371,-0.001751 1.215371,-0.001751 V 1.740639 c 0,1.0370062 -0.0023,1.6075763 -0.0067,1.6303992 -0.01362,0.071797 -0.06045,0.1325738 -0.123731,0.1605656 -0.03755,0.016609 -0.10954,0.021585 -0.149259,0.010318 z m 0.186541,-1.0354861 v -0.033252 h -0.957665 -0.957666 v 0.033252 0.033252 h 0.957666 0.957665 z M 17.639951,1.4855917 V 0.59775601 h -0.139659 -0.13966 V 1.4855917 2.3734274 h 0.13966 0.139659 z m 0.418979,0 V 0.59775601 H 17.895994 17.733058 V 1.4855917 2.3734274 h 0.162936 0.162936 z m 0.418978,0 V 0.59775601 H 18.314972 18.152036 V 1.4855917 2.3734274 h 0.162936 0.162936 z m 0.42563,0 V 0.59775601 H 18.740601 18.577665 V 1.4855917 2.3734274 h 0.162936 0.162937 z m 0.372425,0 V 0.59775601 h -0.139659 -0.13966 V 1.4855917 2.3734274 h 0.13966 0.139659 z M 17.62665,0.50170458 c 0,-0.00162 -0.0065,-0.0143388 -0.0145,-0.0282643 -0.008,-0.0139255 -0.01487,-0.0259814 -0.01533,-0.0267908 -4.65e-4,-8.0804e-4 -0.01413,0.005176 -0.03039,0.013301 -0.04433,0.0221519 -0.123427,0.0209953 -0.170902,-0.0025 l -0.0349,-0.0172719 v 0.0278019 c 0,0.0152911 0.002,0.029797 0.0044,0.0322356 0.0048,0.004834 0.261584,0.006295 0.261584,0.001489 z m 0.43228,-1.7535e-4 c 0,-0.001718 -0.0062,-0.0149379 -0.01369,-0.0293816 L 18.03155,0.44588613 18.002,0.45895573 c -0.06246,0.0276272 -0.145246,0.0216925 -0.194433,-0.0139386 l -0.02621,-0.0189887 -0.0076,0.0252204 c -0.0041,0.0138713 -0.01203,0.0289348 -0.0175,0.0334743 -0.0055,0.004539 -0.0099,0.0108799 -0.0099,0.01409 0,0.003211 0.07033,0.005836 0.156286,0.005836 0.08596,0 0.156286,-0.001405 0.156286,-0.003122 z m 0.418978,-4.696e-4 c 0,-0.001976 -0.006,-0.0152827 -0.01325,-0.0295732 l -0.01326,-0.0259831 -0.03164,0.0145101 c -0.04791,0.0219772 -0.126366,0.0206746 -0.172009,-0.002856 l -0.03397,-0.0175105 -0.01259,0.0275104 c -0.0069,0.0151308 -0.01359,0.0297564 -0.0148,0.0325012 -0.0012,0.002746 0.06387,0.004991 0.144647,0.004991 0.08077,0 0.146864,-0.001616 0.146864,-0.003592 z m 0.412329,6.4305e-4 c 0,-0.00162 -0.0065,-0.0143388 -0.0145,-0.0282643 -0.008,-0.0139255 -0.01487,-0.0259814 -0.01533,-0.0267908 -4.66e-4,-8.0805e-4 -0.01413,0.005176 -0.03039,0.013301 -0.04118,0.0205764 -0.122619,0.0207004 -0.167173,2.5451e-4 l -0.0312,-0.0143189 -0.01369,0.0262615 c -0.0075,0.0144437 -0.01369,0.0276657 -0.01369,0.0293816 0,0.001718 0.06434,0.003122 0.142985,0.003122 0.07864,0 0.142985,-0.001324 0.142985,-0.002945 z m 0.384446,-0.0286446 c 0.0011,-0.0155454 9.31e-4,-0.0282643 -4.14e-4,-0.0282643 -0.0014,0 -0.01574,0.006711 -0.03197,0.0149142 -0.0416,0.0210206 -0.130034,0.0209673 -0.17027,-1.0238e-4 l -0.0277,-0.0145042 -0.01387,0.0235032 c -0.0076,0.0129266 -0.01387,0.0263893 -0.01387,0.0299168 0,0.00396 0.04901,0.005722 0.128022,0.004608 l 0.128021,-0.001806 z m -1.550212,-0.0249373 c 0.02717,-0.0481223 0.01828,-0.13410805 -0.01713,-0.16565398 -0.04372,-0.0389584 -0.09258,0.0664698 -0.06628,0.14304757 0.01333,0.0388159 0.02662,0.0527348 0.0486,0.0508789 0.01534,-0.001295 0.02316,-0.007645 0.0348,-0.0282723 z m 0.431373,0.005437 c 0.01809,-0.0269308 0.0245,-0.0733159 0.01577,-0.11403054 -0.007,-0.032566 -0.03266,-0.0676437 -0.0495,-0.0676437 -0.01695,0 -0.04254,0.0351623 -0.04962,0.0682033 -0.02058,0.0959487 0.03987,0.17823092 0.08336,0.11347087 z m 0.419162,-2.7305e-4 c 0.029,-0.043179 0.0251,-0.12916774 -0.0074,-0.16428515 -0.01827,-0.0197142 -0.03109,-0.0215245 -0.04611,-0.00651 -0.02819,0.0281831 -0.04006,0.0804154 -0.02949,0.12970744 0.0141,0.0657428 0.05341,0.0851965 0.08304,0.0410881 z m 0.403518,0.0131124 c 0.02529,-0.0279428 0.03463,-0.10200042 0.01825,-0.14463524 -0.0093,-0.0242236 -0.03237,-0.0498784 -0.04483,-0.0498784 -0.01712,0 -0.04105,0.0343767 -0.04916,0.0706162 -0.01858,0.0829995 0.03437,0.16961025 0.07574,0.12389744 z m -1.424373,-0.052401 c 0.04129,-0.0241847 0.04217,-0.0429549 0.0034,-0.07192 -0.01391,-0.0103828 -0.03033,-0.0140651 -0.06932,-0.0155445 -0.04347,-0.00165 -0.05506,3.5648e-4 -0.07769,0.013439 -0.04442,0.025679 -0.03545,0.0634221 0.01995,0.0839081 0.02856,0.0105596 0.0983,0.004987 0.123689,-0.009882 z m 0.412343,0.009927 c 0.08793,-0.0294522 0.05523,-0.0984654 -0.04679,-0.0987262 -0.07738,-1.9783e-4 -0.129391,0.0401536 -0.09547,0.0740706 0.02827,0.0282749 0.09627,0.0400592 0.142261,0.0246555 z m 0.418979,0 c 0.08701,-0.0291417 0.05532,-0.098459 -0.04513,-0.0987262 -0.04618,-1.2282e-4 -0.07155,0.007497 -0.09354,0.0280946 -0.01836,0.0171957 -0.01903,0.0325575 -0.0021,0.0478777 0.02984,0.0270057 0.0961,0.0377155 0.14077,0.0227539 z m 0.412312,-6.041e-5 c 0.05945,-0.0178117 0.06806,-0.0602572 0.01722,-0.0848688 -0.05965,-0.0288748 -0.158082,-0.0106176 -0.168595,0.0312693 -0.01086,0.0432827 0.07928,0.0752 0.151373,0.0535995 z m 0.430551,-0.008439 c 0.06698,-0.0346377 0.02148,-0.0904758 -0.07353,-0.090227 -0.09958,2.6078e-4 -0.132603,0.0675553 -0.04843,0.0986819 0.02703,0.009995 0.09545,0.005251 0.121959,-0.008455 z M 17.808319,0.30928426 c 0.01164,-0.008692 0.03264,-0.0194807 0.04666,-0.0239753 0.03687,-0.0118178 0.114767,-0.006275 0.148698,0.0105799 l 0.02788,0.0138502 0.0076,-0.0184467 c 0.0042,-0.0101459 0.01335,-0.0236161 0.02033,-0.0299341 0.007,-0.006318 0.01269,-0.014016 0.01269,-0.0171069 0,-0.003093 -0.07482,-0.00562 -0.166261,-0.00562 -0.09144,0 -0.166262,0.001362 -0.166262,0.003029 0,0.001667 0.0076,0.0141666 0.0168,0.0277782 0.0092,0.0136116 0.01854,0.0317008 0.02067,0.040198 0.0048,0.0190606 0.0051,0.0190568 0.03115,-3.5334e-4 z m -0.416477,-0.0124613 c 0.02147,-0.012691 0.03491,-0.0149637 0.0885,-0.0149637 0.05228,0 0.06799,0.00253 0.09109,0.0146713 0.02687,0.0141247 0.02806,0.0142051 0.03188,0.002166 0.0022,-0.006879 0.01128,-0.0232675 0.0202,-0.0364201 l 0.01623,-0.0239139 -0.137888,0.001798 -0.137888,0.001798 -0.002,0.0349148 c -0.0011,0.0192032 -5.07e-4,0.0349148 0.0013,0.0349148 0.0018,0 0.01468,-0.006733 0.02861,-0.0149637 z m 0.855228,1.1415e-4 c 0.03998,-0.0212055 0.134732,-0.021563 0.176542,-6.6844e-4 l 0.02884,0.0144111 0.009,-0.0215913 c 0.005,-0.0118749 0.01368,-0.0254602 0.01938,-0.0301892 0.0057,-0.004729 0.01036,-0.0112242 0.01036,-0.014434 0,-0.003211 -0.07183,-0.005836 -0.159611,-0.005836 -0.08779,0 -0.159611,0.00253 -0.159611,0.00562 0,0.003093 0.0057,0.0107889 0.01269,0.0171069 0.007,0.006318 0.01632,0.020249 0.02076,0.0309579 0.0044,0.0107089 0.0093,0.0194705 0.01085,0.0194705 0.0015,0 0.01538,-0.006682 0.03078,-0.0148494 z m 0.500182,-0.0150775 c 0.04786,0 0.06518,0.002792 0.08646,0.0139331 l 0.0266,0.0139331 0.02105,-0.0355469 0.02105,-0.0355469 h -0.155721 c -0.09938,0 -0.155718,0.002407 -0.155718,0.006651 0,0.003659 0.0026,0.006651 0.0057,0.006651 0.0031,0 0.01256,0.0128784 0.02091,0.0286192 l 0.01518,0.0286192 0.02731,-0.0136556 c 0.02147,-0.0107394 0.04009,-0.0136556 0.08716,-0.0136556 z m 0.394872,-0.001802 c 0.03669,-0.002048 0.05898,2.285e-4 0.08064,0.008239 0.05778,0.021376 0.05424,0.0223215 0.05194,-0.0138688 l -0.0021,-0.0324699 -0.134672,-0.001802 c -0.124525,-0.001663 -0.150222,0.001379 -0.127926,0.01516 0.0037,0.002293 0.0127,0.0158314 0.01997,0.030086 l 0.01322,0.0259167 0.02409,-0.0142153 c 0.01709,-0.0100832 0.03883,-0.0150386 0.0748,-0.0170477 z"
       id="path6" /></g></svg>
