<?xml version="1.0" encoding="UTF-8" standalone="no"?>
<!-- Created with Inkscape (http://www.inkscape.org/) -->

<svg
   width="2.3860986mm"
   height="3.6188023mm"
   viewBox="0 0 2.3860986 3.6188023"
   version="1.1"
   id="svg1"
   inkscape:version="1.3.2 (091e20e, 2023-11-25, custom)"
   sodipodi:docname="icons.svg"
   inkscape:export-filename="icons.svg"
   inkscape:export-xdpi="96"
   inkscape:export-ydpi="96"
   xml:space="preserve"
   xmlns:inkscape="http://www.inkscape.org/namespaces/inkscape"
   xmlns:sodipodi="http://sodipodi.sourceforge.net/DTD/sodipodi-0.dtd"
   xmlns="http://www.w3.org/2000/svg"
   xmlns:svg="http://www.w3.org/2000/svg"><sodipodi:namedview
     id="namedview1"
     pagecolor="#ffffff"
     bordercolor="#000000"
     borderopacity="0.25"
     inkscape:showpageshadow="2"
     inkscape:pageopacity="0.0"
     inkscape:pagecheckerboard="0"
     inkscape:deskcolor="#d1d1d1"
     inkscape:document-units="mm"
     inkscape:zoom="4.568294"
     inkscape:cx="10.507205"
     inkscape:cy="34.257865"
     inkscape:window-width="1600"
     inkscape:window-height="837"
     inkscape:window-x="-8"
     inkscape:window-y="-8"
     inkscape:window-maximized="1"
     inkscape:current-layer="layer1" /><defs
     id="defs1" /><g
     inkscape:label="Camada 1"
     inkscape:groupmode="layer"
     id="layer1"
     transform="translate(-4.5881091)"><path
       style="fill:#000000;stroke-width:0.200428"
       d="M 5.1699821,3.4776628 4.6035261,3.3384612 4.5958176,1.7253165 4.5881091,0.11217191 4.7150715,0.0943456 c 0.069829,-0.0098044 0.3382654,-0.03839711 0.5965248,-0.0635393 0.4219212,-0.04107508 0.5172031,-0.04107508 0.9391246,0 C 6.50898,0.0559485 6.7774162,0.08454116 6.8472455,0.0943456 L 6.9742079,0.11217191 6.9664994,1.7251319 6.9587909,3.3380922 6.3774283,3.4794027 C 6.0576785,3.5571239 5.7826492,3.6198476 5.7662517,3.618789 5.7498547,3.6177267 5.481533,3.5542238 5.1699821,3.4776628 Z m 0.5515494,-1.017073 c 0,-0.7254611 -0.00158,-0.7453368 -0.059627,-0.7453368 -0.033126,0 -0.059627,-0.019876 -0.059627,-0.04472 0,-0.024845 0.026501,-0.04472 0.059627,-0.04472 0.058033,0 0.059627,-0.019876 0.059627,-0.74357754 0,-0.40896761 -0.010061,-0.74880375 -0.02236,-0.75519145 -0.022934,-0.0119121 -0.7204411,0.0531116 -0.8944043,0.083379 l -0.096894,0.0168582 V 1.5962008 2.9651207 l 0.1118006,0.029901 c 0.2604709,0.069662 0.8302437,0.2074732 0.8645908,0.2091193 0.028867,0.00138 0.037267,-0.166204 0.037267,-0.7435512 z M 6.2589221,3.1153666 C 6.4634785,3.0655583 6.681153,3.0113769 6.7426431,2.9949635 L 6.8544439,2.965121 V 1.5962008 0.22728091 l -0.096894,-0.0168582 c -0.1739633,-0.0302675 -0.8714704,-0.0952911 -0.8944044,-0.083379 -0.012298,0.006388 -0.02236,0.34622383 -0.02236,0.75519147 0,0.72370172 0.0016,0.74357742 0.059627,0.74357742 0.033126,0 0.059627,0.019877 0.059627,0.04472 0,0.024845 -0.026501,0.04472 -0.059627,0.04472 -0.058037,0 -0.059627,0.019877 -0.059627,0.745337 0,0.4099355 0.010398,0.7453371 0.023108,0.7453371 0.012709,0 0.1904725,-0.040752 0.3950286,-0.09056 z"
       id="path1" /></g></svg>
