<?xml version="1.0" encoding="UTF-8" standalone="no"?>
<!-- Created with Inkscape (http://www.inkscape.org/) -->

<svg
   width="210mm"
   height="297mm"
   viewBox="0 0 210 297"
   version="1.1"
   id="svg1"
   inkscape:version="1.3.2 (091e20e, 2023-11-25, custom)"
   sodipodi:docname="icons.svg"
   inkscape:export-filename="icons.svg"
   inkscape:export-xdpi="96"
   inkscape:export-ydpi="96"
   xml:space="preserve"
   xmlns:inkscape="http://www.inkscape.org/namespaces/inkscape"
   xmlns:sodipodi="http://sodipodi.sourceforge.net/DTD/sodipodi-0.dtd"
   xmlns="http://www.w3.org/2000/svg"
   xmlns:svg="http://www.w3.org/2000/svg"><sodipodi:namedview
     id="namedview1"
     pagecolor="#ffffff"
     bordercolor="#000000"
     borderopacity="0.25"
     inkscape:showpageshadow="2"
     inkscape:pageopacity="0.0"
     inkscape:pagecheckerboard="0"
     inkscape:deskcolor="#d1d1d1"
     inkscape:document-units="mm"
     inkscape:zoom="9.136588"
     inkscape:cx="41.645743"
     inkscape:cy="11.32808"
     inkscape:window-width="1600"
     inkscape:window-height="837"
     inkscape:window-x="-8"
     inkscape:window-y="-8"
     inkscape:window-maximized="1"
     inkscape:current-layer="layer1" /><defs
     id="defs1" /><g
     inkscape:label="Camada 1"
     inkscape:groupmode="layer"
     id="layer1"><path
       style="fill:#000000;stroke-width:0.356868"
       d="m 0.54834999,3.3767477 c -0.17210153,-0.089907 -0.17210153,-0.3313792 0,-0.421286 l 0.0507077,-0.02649 H 2.1145429 3.6300278 l 0.050708,0.02649 c 0.1721012,0.089907 0.1721012,0.3313791 0,0.421286 l -0.050708,0.02649 H 2.1145429 0.5990577 Z m 0,-1.2141209 c -0.17210153,-0.089907 -0.17210153,-0.3313791 0,-0.421286 l 0.0507077,-0.02649 H 1.3770418 c 0.5831003,0 0.7877638,0.00289 0.8170256,0.011534 0.052101,0.015395 0.1306794,0.093972 0.1460732,0.1460732 0.028275,0.095693 0.00838,0.1781725 -0.059283,0.2458393 -0.030084,0.030084 -0.062192,0.052016 -0.08679,0.059283 -0.029263,0.00865 -0.2339253,0.011534 -0.8170256,0.011534 H 0.5990577 Z m 0,-1.21412105 C 0.48447717,0.91513819 0.44072311,0.85883139 0.42537542,0.79025066 0.401387,0.68305915 0.45029831,0.57844254 0.54834999,0.52721973 l 0.0507077,-0.02649 H 2.1145429 3.6300278 l 0.050708,0.02649 c 0.1721012,0.0899069 0.1721012,0.33137913 0,0.42128602 l -0.050708,0.02649 H 2.1145429 0.5990577 Z"
       id="path4"
       inkscape:export-filename="menu.svg"
       inkscape:export-xdpi="96"
       inkscape:export-ydpi="96" /><text
       xml:space="preserve"
       style="font-size:3.175px;line-height:1.4;font-family:'Gotham Black';-inkscape-font-specification:'Gotham Black, ';text-align:center;letter-spacing:0px;text-anchor:middle;fill:#000000;stroke-width:0.499999;stroke-linecap:round;stroke-linejoin:round;stroke-dashoffset:1.13386;paint-order:fill markers stroke"
       x="9.7011509"
       y="13.089313"
       id="text4"
       inkscape:export-filename="..\arts\fake-logo.png"
       inkscape:export-xdpi="200"
       inkscape:export-ydpi="200"><tspan
         sodipodi:role="line"
         id="tspan4"
         style="font-style:normal;font-variant:normal;font-weight:normal;font-stretch:normal;font-family:'Christmas Angely - Personal use';-inkscape-font-specification:'Christmas Angely - Personal use';stroke-width:0.5"
         x="9.7011509"
         y="13.089313">Sua Empresa</tspan></text><path
       style="fill:#000000;stroke-width:0.200428"
       d="M 5.1699821,3.4776628 4.6035261,3.3384612 4.5958176,1.7253165 4.5881091,0.11217191 4.7150715,0.0943456 c 0.069829,-0.0098044 0.3382654,-0.03839711 0.5965248,-0.0635393 0.4219212,-0.04107508 0.5172031,-0.04107508 0.9391246,0 C 6.50898,0.0559485 6.7774162,0.08454116 6.8472455,0.0943456 L 6.9742079,0.11217191 6.9664994,1.7251319 6.9587909,3.3380922 6.3774283,3.4794027 C 6.0576785,3.5571239 5.7826492,3.6198476 5.7662517,3.618789 5.7498547,3.6177267 5.481533,3.5542238 5.1699821,3.4776628 Z m 0.5515494,-1.017073 c 0,-0.7254611 -0.00158,-0.7453368 -0.059627,-0.7453368 -0.033126,0 -0.059627,-0.019876 -0.059627,-0.04472 0,-0.024845 0.026501,-0.04472 0.059627,-0.04472 0.058033,0 0.059627,-0.019876 0.059627,-0.74357754 0,-0.40896761 -0.010061,-0.74880375 -0.02236,-0.75519145 -0.022934,-0.0119121 -0.7204411,0.0531116 -0.8944043,0.083379 l -0.096894,0.0168582 V 1.5962008 2.9651207 l 0.1118006,0.029901 c 0.2604709,0.069662 0.8302437,0.2074732 0.8645908,0.2091193 0.028867,0.00138 0.037267,-0.166204 0.037267,-0.7435512 z M 6.2589221,3.1153666 C 6.4634785,3.0655583 6.681153,3.0113769 6.7426431,2.9949635 L 6.8544439,2.965121 V 1.5962008 0.22728091 l -0.096894,-0.0168582 c -0.1739633,-0.0302675 -0.8714704,-0.0952911 -0.8944044,-0.083379 -0.012298,0.006388 -0.02236,0.34622383 -0.02236,0.75519147 0,0.72370172 0.0016,0.74357742 0.059627,0.74357742 0.033126,0 0.059627,0.019877 0.059627,0.04472 0,0.024845 -0.026501,0.04472 -0.059627,0.04472 -0.058037,0 -0.059627,0.019877 -0.059627,0.745337 0,0.4099355 0.010398,0.7453371 0.023108,0.7453371 0.012709,0 0.1904725,-0.040752 0.3950286,-0.09056 z"
       id="path1"
       inkscape:export-filename="box.svg"
       inkscape:export-xdpi="96"
       inkscape:export-ydpi="96" /><path
       style="fill:#000000;stroke-width:0.350357"
       d="M 7.6073832,3.2471941 C 7.6123956,3.0884374 7.6205913,3.0332324 7.6481586,2.972637 7.6944679,2.8708473 7.8040288,2.7550416 7.9038922,2.7023275 l 0.081758,-0.043157 H 8.561508 c 0.5744376,0 0.5760496,9.55e-5 0.6538633,0.038733 0.099739,0.049524 0.2083519,0.1581751 0.256895,0.2569839 0.032499,0.066155 0.038849,0.107362 0.043785,0.284196 l 0.00578,0.206822 H 8.5614689 7.6011128 Z m 2.0733971,0.1269082 v -0.074189 h 0.1193423 0.1193422 l 0.00875,-0.127698 c 0.00515,-0.075093 0.022212,-0.1581257 0.041425,-0.201561 0.046121,-0.1042656 0.1532592,-0.2139435 0.2603682,-0.2665432 0.08436,-0.041426 0.110544,-0.045575 0.334833,-0.053052 l 0.24332,-0.00811 0.005,-0.058863 c 0.0047,-0.056547 0.0025,-0.059314 -0.05677,-0.070309 -0.09437,-0.017501 -0.240896,-0.1025117 -0.31465,-0.1825256 -0.188996,-0.2050362 -0.214787,-0.5252655 -0.06101,-0.7574351 0.06961,-0.1050901 0.212324,-0.2081628 0.336447,-0.2429897 l 0.09913,-0.027816 -0.0011,-0.32764279 C 10.814581,0.79516429 10.808812,0.59029307 10.802462,0.5200984 10.792322,0.40810987 10.785352,0.38773701 10.745942,0.3538297 L 10.701022,0.3151875 H 9.7374139 c -0.7124602,0 -0.9745841,0.00505 -1.0060349,0.0193794 C 8.650625,0.371361 8.642615,0.4127201 8.642615,0.79291148 V 1.1424753 H 8.5696185 8.4966226 V 0.76857895 c 0,-0.41007017 0.00199,-0.42030715 0.1,-0.51227553 0.1041259,-0.097716 0.050497,-0.0933033 1.124762,-0.0925492 0.9632794,6.7619e-4 0.9912724,0.001574 1.0543864,0.0337843 0.07369,0.03761 0.104755,0.0691062 0.148041,0.15009123 0.02897,0.0542102 0.03035,0.1202079 0.03035,1.46111025 v 1.4043356 l -0.04475,0.067613 c -0.02461,0.037187 -0.07516,0.087748 -0.112324,0.1123598 l -0.06758,0.044747 -0.524358,0.00525 -0.5243574,0.00525 z M 8.3488859,2.4840453 C 8.1795078,2.4126105 8.0846095,2.3208721 8.0057336,2.152318 7.9605971,2.0558636 7.9580096,2.0396631 7.9641592,1.8920082 7.9700292,1.7510538 7.9764112,1.7239265 8.0250702,1.6331369 8.0909222,1.5102649 8.1919375,1.4138068 8.315347,1.3559548 c 0.079434,-0.037237 0.11319,-0.043155 0.2461613,-0.043155 0.1354996,0 0.1662872,0.00563 0.2550378,0.046623 0.124099,0.057322 0.2488746,0.1842739 0.3088725,0.314259 0.036446,0.07896 0.043099,0.1157752 0.043246,0.2393076 1.532e-4,0.1291108 -0.00555,0.1581894 -0.049333,0.2514773 -0.060835,0.1296256 -0.164908,0.236404 -0.2915784,0.2991568 -0.080049,0.039657 -0.1200776,0.048452 -0.2419126,0.053152 -0.1250062,0.00482 -0.1590676,1.184e-4 -0.2369544,-0.032729 z"
       id="path2"
       inkscape:export-filename="mirror.svg"
       inkscape:export-xdpi="96"
       inkscape:export-ydpi="96" /><path
       style="fill:#000000;stroke-width:0.437393"
       d="M 11.857132,3.2168122 C 11.743068,3.1137624 11.707727,3.0552028 11.725604,2.9988755 c 0.02202,-0.069392 2.180599,-2.11522354 2.238764,-2.12183212 0.03996,-0.00454 0.188462,0.12354772 0.613294,0.52898452 l 0.560567,0.5349753 0.0067,-0.3083358 0.0067,-0.3083357 h 0.285555 0.285554 v 0.5898218 0.5898217 l 0.250826,0.239102 c 0.147521,0.1406263 0.250677,0.2576981 0.250466,0.284254 -5.69e-4,0.070089 -0.220145,0.2768758 -0.294015,0.2768758 -0.04896,0 -0.25491,-0.184883 -0.983171,-0.882595 -0.678412,-0.6499555 -0.936036,-0.8825951 -0.977381,-0.8825951 -0.04134,0 -0.299134,0.2327235 -0.977678,0.8825951 -0.696931,0.6674825 -0.935706,0.882595 -0.979681,0.882595 -0.03344,0 -0.09924,-0.037128 -0.154883,-0.087395 z M 15.338181,1.040891 c -0.08302,-0.0830176 -0.09261,-0.10503132 -0.09261,-0.21254355 0,-0.0831208 0.02147,-0.16534005 0.06996,-0.26786227 0.07662,-0.16201683 0.07156,-0.22118772 -0.028,-0.32747039 l -0.05028,-0.0536713 h 0.07811 c 0.05702,0 0.1,0.0218942 0.159209,0.0811033 0.109033,0.10903343 0.111981,0.24359699 0.0095,0.43556456 -0.08072,0.15126198 -0.08712,0.2109615 -0.03578,0.33382555 0.04283,0.1025107 0.04293,0.1036634 0.0091,0.1036634 -0.01466,0 -0.06833,-0.041674 -0.119269,-0.092609 z"
       id="path5"
       inkscape:export-filename="roof.svg"
       inkscape:export-xdpi="96"
       inkscape:export-ydpi="96" /><path
       style="fill:#000000;stroke-width:0.423061"
       d="M 19.089422,3.5419227 C 19.026013,3.5239341 18.99081,3.4918018 18.953628,3.4179692 18.908021,3.3274053 18.813148,3.2192375 18.709485,3.139614 18.44001,2.9326291 18.010187,2.7817096 17.726407,2.7944352 c -0.121536,0.00545 -0.183406,0.032114 -0.216774,0.093422 -0.02725,0.050068 -0.06154,0.084135 -0.105773,0.1050959 -0.103006,0.048809 -0.226471,0.00606 -0.281524,-0.097465 -0.01557,-0.029269 -0.01768,-0.04082 -0.0177,-0.096432 -1.1e-5,-0.053525 0.0024,-0.067753 0.01568,-0.093106 0.02194,-0.041818 0.07556,-0.090735 0.114716,-0.1046415 l 0.03252,-0.011551 -0.0017,-1.1739004 -0.0017,-1.17390037 h -0.14631 c -0.08047,0 -0.154309,0.002242 -0.164086,0.004986 -0.02351,0.006595 -0.05671,0.0350502 -0.0693,0.0593979 -0.01308,0.0252864 -0.01338,0.0781629 -5.92e-4,0.1026493 0.0318,0.0609014 0.09451,0.083785 0.154708,0.0564466 0.03319,-0.0150741 0.05436,-0.0408863 0.06444,-0.0785778 l 0.0076,-0.028519 h 0.0461 0.0461 l -0.0039,0.0327339 c -0.01185,0.10007227 -0.105504,0.18008067 -0.21079,0.18008067 -0.08233,0 -0.155841,-0.0479607 -0.191423,-0.12489328 -0.02354,-0.0508987 -0.02456,-0.12188158 -0.0025,-0.17105193 0.01944,-0.0432496 0.06755,-0.091744 0.110145,-0.11102853 l 0.03386,-0.01533 1.215371,-0.001751 1.215371,-0.001751 V 1.740639 c 0,1.0370062 -0.0023,1.6075763 -0.0067,1.6303992 -0.01362,0.071797 -0.06045,0.1325738 -0.123731,0.1605656 -0.03755,0.016609 -0.10954,0.021585 -0.149259,0.010318 z m 0.186541,-1.0354861 v -0.033252 h -0.957665 -0.957666 v 0.033252 0.033252 h 0.957666 0.957665 z M 17.639951,1.4855917 V 0.59775601 h -0.139659 -0.13966 V 1.4855917 2.3734274 h 0.13966 0.139659 z m 0.418979,0 V 0.59775601 H 17.895994 17.733058 V 1.4855917 2.3734274 h 0.162936 0.162936 z m 0.418978,0 V 0.59775601 H 18.314972 18.152036 V 1.4855917 2.3734274 h 0.162936 0.162936 z m 0.42563,0 V 0.59775601 H 18.740601 18.577665 V 1.4855917 2.3734274 h 0.162936 0.162937 z m 0.372425,0 V 0.59775601 h -0.139659 -0.13966 V 1.4855917 2.3734274 h 0.13966 0.139659 z M 17.62665,0.50170458 c 0,-0.00162 -0.0065,-0.0143388 -0.0145,-0.0282643 -0.008,-0.0139255 -0.01487,-0.0259814 -0.01533,-0.0267908 -4.65e-4,-8.0804e-4 -0.01413,0.005176 -0.03039,0.013301 -0.04433,0.0221519 -0.123427,0.0209953 -0.170902,-0.0025 l -0.0349,-0.0172719 v 0.0278019 c 0,0.0152911 0.002,0.029797 0.0044,0.0322356 0.0048,0.004834 0.261584,0.006295 0.261584,0.001489 z m 0.43228,-1.7535e-4 c 0,-0.001718 -0.0062,-0.0149379 -0.01369,-0.0293816 L 18.03155,0.44588613 18.002,0.45895573 c -0.06246,0.0276272 -0.145246,0.0216925 -0.194433,-0.0139386 l -0.02621,-0.0189887 -0.0076,0.0252204 c -0.0041,0.0138713 -0.01203,0.0289348 -0.0175,0.0334743 -0.0055,0.004539 -0.0099,0.0108799 -0.0099,0.01409 0,0.003211 0.07033,0.005836 0.156286,0.005836 0.08596,0 0.156286,-0.001405 0.156286,-0.003122 z m 0.418978,-4.696e-4 c 0,-0.001976 -0.006,-0.0152827 -0.01325,-0.0295732 l -0.01326,-0.0259831 -0.03164,0.0145101 c -0.04791,0.0219772 -0.126366,0.0206746 -0.172009,-0.002856 l -0.03397,-0.0175105 -0.01259,0.0275104 c -0.0069,0.0151308 -0.01359,0.0297564 -0.0148,0.0325012 -0.0012,0.002746 0.06387,0.004991 0.144647,0.004991 0.08077,0 0.146864,-0.001616 0.146864,-0.003592 z m 0.412329,6.4305e-4 c 0,-0.00162 -0.0065,-0.0143388 -0.0145,-0.0282643 -0.008,-0.0139255 -0.01487,-0.0259814 -0.01533,-0.0267908 -4.66e-4,-8.0805e-4 -0.01413,0.005176 -0.03039,0.013301 -0.04118,0.0205764 -0.122619,0.0207004 -0.167173,2.5451e-4 l -0.0312,-0.0143189 -0.01369,0.0262615 c -0.0075,0.0144437 -0.01369,0.0276657 -0.01369,0.0293816 0,0.001718 0.06434,0.003122 0.142985,0.003122 0.07864,0 0.142985,-0.001324 0.142985,-0.002945 z m 0.384446,-0.0286446 c 0.0011,-0.0155454 9.31e-4,-0.0282643 -4.14e-4,-0.0282643 -0.0014,0 -0.01574,0.006711 -0.03197,0.0149142 -0.0416,0.0210206 -0.130034,0.0209673 -0.17027,-1.0238e-4 l -0.0277,-0.0145042 -0.01387,0.0235032 c -0.0076,0.0129266 -0.01387,0.0263893 -0.01387,0.0299168 0,0.00396 0.04901,0.005722 0.128022,0.004608 l 0.128021,-0.001806 z m -1.550212,-0.0249373 c 0.02717,-0.0481223 0.01828,-0.13410805 -0.01713,-0.16565398 -0.04372,-0.0389584 -0.09258,0.0664698 -0.06628,0.14304757 0.01333,0.0388159 0.02662,0.0527348 0.0486,0.0508789 0.01534,-0.001295 0.02316,-0.007645 0.0348,-0.0282723 z m 0.431373,0.005437 c 0.01809,-0.0269308 0.0245,-0.0733159 0.01577,-0.11403054 -0.007,-0.032566 -0.03266,-0.0676437 -0.0495,-0.0676437 -0.01695,0 -0.04254,0.0351623 -0.04962,0.0682033 -0.02058,0.0959487 0.03987,0.17823092 0.08336,0.11347087 z m 0.419162,-2.7305e-4 c 0.029,-0.043179 0.0251,-0.12916774 -0.0074,-0.16428515 -0.01827,-0.0197142 -0.03109,-0.0215245 -0.04611,-0.00651 -0.02819,0.0281831 -0.04006,0.0804154 -0.02949,0.12970744 0.0141,0.0657428 0.05341,0.0851965 0.08304,0.0410881 z m 0.403518,0.0131124 c 0.02529,-0.0279428 0.03463,-0.10200042 0.01825,-0.14463524 -0.0093,-0.0242236 -0.03237,-0.0498784 -0.04483,-0.0498784 -0.01712,0 -0.04105,0.0343767 -0.04916,0.0706162 -0.01858,0.0829995 0.03437,0.16961025 0.07574,0.12389744 z m -1.424373,-0.052401 c 0.04129,-0.0241847 0.04217,-0.0429549 0.0034,-0.07192 -0.01391,-0.0103828 -0.03033,-0.0140651 -0.06932,-0.0155445 -0.04347,-0.00165 -0.05506,3.5648e-4 -0.07769,0.013439 -0.04442,0.025679 -0.03545,0.0634221 0.01995,0.0839081 0.02856,0.0105596 0.0983,0.004987 0.123689,-0.009882 z m 0.412343,0.009927 c 0.08793,-0.0294522 0.05523,-0.0984654 -0.04679,-0.0987262 -0.07738,-1.9783e-4 -0.129391,0.0401536 -0.09547,0.0740706 0.02827,0.0282749 0.09627,0.0400592 0.142261,0.0246555 z m 0.418979,0 c 0.08701,-0.0291417 0.05532,-0.098459 -0.04513,-0.0987262 -0.04618,-1.2282e-4 -0.07155,0.007497 -0.09354,0.0280946 -0.01836,0.0171957 -0.01903,0.0325575 -0.0021,0.0478777 0.02984,0.0270057 0.0961,0.0377155 0.14077,0.0227539 z m 0.412312,-6.041e-5 c 0.05945,-0.0178117 0.06806,-0.0602572 0.01722,-0.0848688 -0.05965,-0.0288748 -0.158082,-0.0106176 -0.168595,0.0312693 -0.01086,0.0432827 0.07928,0.0752 0.151373,0.0535995 z m 0.430551,-0.008439 c 0.06698,-0.0346377 0.02148,-0.0904758 -0.07353,-0.090227 -0.09958,2.6078e-4 -0.132603,0.0675553 -0.04843,0.0986819 0.02703,0.009995 0.09545,0.005251 0.121959,-0.008455 z M 17.808319,0.30928426 c 0.01164,-0.008692 0.03264,-0.0194807 0.04666,-0.0239753 0.03687,-0.0118178 0.114767,-0.006275 0.148698,0.0105799 l 0.02788,0.0138502 0.0076,-0.0184467 c 0.0042,-0.0101459 0.01335,-0.0236161 0.02033,-0.0299341 0.007,-0.006318 0.01269,-0.014016 0.01269,-0.0171069 0,-0.003093 -0.07482,-0.00562 -0.166261,-0.00562 -0.09144,0 -0.166262,0.001362 -0.166262,0.003029 0,0.001667 0.0076,0.0141666 0.0168,0.0277782 0.0092,0.0136116 0.01854,0.0317008 0.02067,0.040198 0.0048,0.0190606 0.0051,0.0190568 0.03115,-3.5334e-4 z m -0.416477,-0.0124613 c 0.02147,-0.012691 0.03491,-0.0149637 0.0885,-0.0149637 0.05228,0 0.06799,0.00253 0.09109,0.0146713 0.02687,0.0141247 0.02806,0.0142051 0.03188,0.002166 0.0022,-0.006879 0.01128,-0.0232675 0.0202,-0.0364201 l 0.01623,-0.0239139 -0.137888,0.001798 -0.137888,0.001798 -0.002,0.0349148 c -0.0011,0.0192032 -5.07e-4,0.0349148 0.0013,0.0349148 0.0018,0 0.01468,-0.006733 0.02861,-0.0149637 z m 0.855228,1.1415e-4 c 0.03998,-0.0212055 0.134732,-0.021563 0.176542,-6.6844e-4 l 0.02884,0.0144111 0.009,-0.0215913 c 0.005,-0.0118749 0.01368,-0.0254602 0.01938,-0.0301892 0.0057,-0.004729 0.01036,-0.0112242 0.01036,-0.014434 0,-0.003211 -0.07183,-0.005836 -0.159611,-0.005836 -0.08779,0 -0.159611,0.00253 -0.159611,0.00562 0,0.003093 0.0057,0.0107889 0.01269,0.0171069 0.007,0.006318 0.01632,0.020249 0.02076,0.0309579 0.0044,0.0107089 0.0093,0.0194705 0.01085,0.0194705 0.0015,0 0.01538,-0.006682 0.03078,-0.0148494 z m 0.500182,-0.0150775 c 0.04786,0 0.06518,0.002792 0.08646,0.0139331 l 0.0266,0.0139331 0.02105,-0.0355469 0.02105,-0.0355469 h -0.155721 c -0.09938,0 -0.155718,0.002407 -0.155718,0.006651 0,0.003659 0.0026,0.006651 0.0057,0.006651 0.0031,0 0.01256,0.0128784 0.02091,0.0286192 l 0.01518,0.0286192 0.02731,-0.0136556 c 0.02147,-0.0107394 0.04009,-0.0136556 0.08716,-0.0136556 z m 0.394872,-0.001802 c 0.03669,-0.002048 0.05898,2.285e-4 0.08064,0.008239 0.05778,0.021376 0.05424,0.0223215 0.05194,-0.0138688 l -0.0021,-0.0324699 -0.134672,-0.001802 c -0.124525,-0.001663 -0.150222,0.001379 -0.127926,0.01516 0.0037,0.002293 0.0127,0.0158314 0.01997,0.030086 l 0.01322,0.0259167 0.02409,-0.0142153 c 0.01709,-0.0100832 0.03883,-0.0150386 0.0748,-0.0170477 z"
       id="path6"
       inkscape:export-filename="balcony.svg"
       inkscape:export-xdpi="96"
       inkscape:export-ydpi="96" /></g></svg>
