<?xml version="1.0" encoding="UTF-8" standalone="no"?>
<!-- Created with Inkscape (http://www.inkscape.org/) -->

<svg
   width="21.587681mm"
   height="21.561813mm"
   viewBox="0 0 21.587681 21.561813"
   version="1.1"
   id="svg1"
   xml:space="preserve"
   xmlns:inkscape="http://www.inkscape.org/namespaces/inkscape"
   xmlns:sodipodi="http://sodipodi.sourceforge.net/DTD/sodipodi-0.dtd"
   xmlns="http://www.w3.org/2000/svg"
   xmlns:svg="http://www.w3.org/2000/svg"><sodipodi:namedview
     id="namedview1"
     pagecolor="#ffffff"
     bordercolor="#000000"
     borderopacity="0.25"
     inkscape:showpageshadow="2"
     inkscape:pageopacity="0.0"
     inkscape:pagecheckerboard="0"
     inkscape:deskcolor="#d1d1d1"
     inkscape:document-units="mm" /><defs
     id="defs1" /><g
     inkscape:label="Camada 1"
     inkscape:groupmode="layer"
     id="layer1"
     transform="translate(-43.944402,-138.92891)"><path
       style="fill:#000000;stroke-width:0.653078"
       d="m 49.176235,160.36257 c -2.456122,-0.35815 -4.105092,-1.75561 -4.934636,-4.18197 -0.281854,-0.82441 -0.413967,-10.20438 -0.167487,-11.89147 0.428548,-2.93326 2.299306,-4.81835 5.188768,-5.22851 1.732503,-0.24593 10.9346,-0.12169 11.874586,0.16033 2.310866,0.69329 3.822799,2.42976 4.240477,4.87024 0.225837,1.31955 0.195673,10.08593 -0.03924,11.40253 -0.474182,2.65769 -2.36967,4.49319 -5.036444,4.87706 -1.142333,0.16443 -9.986839,0.15791 -11.126028,-0.008 z m 11.096562,-2.02889 c 1.366865,-0.27037 2.413392,-1.1316 2.896218,-2.38339 0.236943,-0.6143 0.256867,-1.09783 0.256867,-6.23413 0,-5.15115 -0.01939,-5.61846 -0.258825,-6.23928 -0.343061,-0.88949 -1.14545,-1.73659 -2.019101,-2.13158 l -0.709883,-0.32096 h -5.703999 -5.703997 l -0.709883,0.32096 c -0.873652,0.39499 -1.676042,1.24209 -2.019102,2.13158 -0.239439,0.62082 -0.258825,1.08813 -0.258825,6.23928 0,6.28264 0.01086,6.36055 1.042846,7.48011 0.827532,0.89777 1.628657,1.17415 3.710486,1.28005 2.306252,0.11733 8.645313,0.0219 9.477198,-0.14264 z m -6.406373,-3.14246 c -2.732579,-0.38005 -4.672729,-2.68461 -4.65408,-5.52825 0.01432,-2.18379 1.229962,-4.08139 3.18925,-4.97838 4.410729,-2.0193 9.127801,2.19355 7.608474,6.79518 -0.29473,0.89265 -0.499973,1.21493 -1.327306,2.08417 -0.774479,0.81371 -1.938767,1.47061 -2.817937,1.58989 -0.323132,0.0438 -0.709741,0.0973 -0.859132,0.11888 -0.14939,0.0216 -0.662061,-0.0152 -1.139269,-0.0815 z m 2.100432,-2.16333 c 2.046489,-0.76568 2.918659,-3.09682 1.875635,-5.0132 -0.663573,-1.2192 -2.148386,-2.00881 -3.480727,-1.85102 -1.897514,0.22473 -3.416506,2.08826 -3.171302,3.8906 0.1152,0.84676 0.680242,1.94627 1.204253,2.34334 1.239797,0.93944 2.263193,1.12002 3.572141,0.63028 z m 4.063788,-7.85394 c -1.315865,-0.53857 -0.948389,-2.51372 0.467678,-2.51372 1.007529,0 1.598264,0.9567 1.160442,1.87934 -0.296639,0.62512 -0.990351,0.89542 -1.62812,0.63438 z"
       id="path26" /></g></svg>
