<?xml version="1.0" encoding="UTF-8" standalone="no"?>
<!-- Created with Inkscape (http://www.inkscape.org/) -->

<svg
   width="3.3905377mm"
   height="2.902508mm"
   viewBox="0 0 3.3905377 2.902508"
   version="1.1"
   id="svg1"
   inkscape:version="1.3.2 (091e20e, 2023-11-25, custom)"
   sodipodi:docname="icons.svg"
   inkscape:export-filename="icons.svg"
   inkscape:export-xdpi="96"
   inkscape:export-ydpi="96"
   xml:space="preserve"
   xmlns:inkscape="http://www.inkscape.org/namespaces/inkscape"
   xmlns:sodipodi="http://sodipodi.sourceforge.net/DTD/sodipodi-0.dtd"
   xmlns="http://www.w3.org/2000/svg"
   xmlns:svg="http://www.w3.org/2000/svg"><sodipodi:namedview
     id="namedview1"
     pagecolor="#ffffff"
     bordercolor="#000000"
     borderopacity="0.25"
     inkscape:showpageshadow="2"
     inkscape:pageopacity="0.0"
     inkscape:pagecheckerboard="0"
     inkscape:deskcolor="#d1d1d1"
     inkscape:document-units="mm"
     inkscape:zoom="18.273176"
     inkscape:cx="15.268282"
     inkscape:cy="14.693669"
     inkscape:window-width="1600"
     inkscape:window-height="837"
     inkscape:window-x="-8"
     inkscape:window-y="-8"
     inkscape:window-maximized="1"
     inkscape:current-layer="layer1" /><defs
     id="defs1" /><g
     inkscape:label="Camada 1"
     inkscape:groupmode="layer"
     id="layer1"
     transform="translate(-0.41927386,-0.50072973)"><path
       style="fill:#000000;stroke-width:0.356868"
       d="m 0.54834999,3.3767477 c -0.17210153,-0.089907 -0.17210153,-0.3313792 0,-0.421286 l 0.0507077,-0.02649 H 2.1145429 3.6300278 l 0.050708,0.02649 c 0.1721012,0.089907 0.1721012,0.3313791 0,0.421286 l -0.050708,0.02649 H 2.1145429 0.5990577 Z m 0,-1.2141209 c -0.17210153,-0.089907 -0.17210153,-0.3313791 0,-0.421286 l 0.0507077,-0.02649 H 1.3770418 c 0.5831003,0 0.7877638,0.00289 0.8170256,0.011534 0.052101,0.015395 0.1306794,0.093972 0.1460732,0.1460732 0.028275,0.095693 0.00838,0.1781725 -0.059283,0.2458393 -0.030084,0.030084 -0.062192,0.052016 -0.08679,0.059283 -0.029263,0.00865 -0.2339253,0.011534 -0.8170256,0.011534 H 0.5990577 Z m 0,-1.21412105 C 0.48447717,0.91513819 0.44072311,0.85883139 0.42537542,0.79025066 0.401387,0.68305915 0.45029831,0.57844254 0.54834999,0.52721973 l 0.0507077,-0.02649 H 2.1145429 3.6300278 l 0.050708,0.02649 c 0.1721012,0.0899069 0.1721012,0.33137913 0,0.42128602 l -0.050708,0.02649 H 2.1145429 0.5990577 Z"
       id="path4" /></g></svg>
