<?xml version="1.0" encoding="UTF-8" standalone="no"?>
<!-- Created with Inkscape (http://www.inkscape.org/) -->

<svg
   width="3.3530495mm"
   height="3.2847891mm"
   viewBox="0 0 3.3530495 3.2847891"
   version="1.1"
   id="svg1"
   inkscape:version="1.3.2 (091e20e, 2023-11-25, custom)"
   sodipodi:docname="icons.svg"
   inkscape:export-filename="icons.svg"
   inkscape:export-xdpi="96"
   inkscape:export-ydpi="96"
   xml:space="preserve"
   xmlns:inkscape="http://www.inkscape.org/namespaces/inkscape"
   xmlns:sodipodi="http://sodipodi.sourceforge.net/DTD/sodipodi-0.dtd"
   xmlns="http://www.w3.org/2000/svg"
   xmlns:svg="http://www.w3.org/2000/svg"><sodipodi:namedview
     id="namedview1"
     pagecolor="#ffffff"
     bordercolor="#000000"
     borderopacity="0.25"
     inkscape:showpageshadow="2"
     inkscape:pageopacity="0.0"
     inkscape:pagecheckerboard="0"
     inkscape:deskcolor="#d1d1d1"
     inkscape:document-units="mm"
     inkscape:zoom="4.568294"
     inkscape:cx="10.507205"
     inkscape:cy="34.257865"
     inkscape:window-width="1600"
     inkscape:window-height="837"
     inkscape:window-x="-8"
     inkscape:window-y="-8"
     inkscape:window-maximized="1"
     inkscape:current-layer="layer1" /><defs
     id="defs1" /><g
     inkscape:label="Camada 1"
     inkscape:groupmode="layer"
     id="layer1"
     transform="translate(-7.6011125,-0.16350653)"><path
       style="fill:#000000;stroke-width:0.350357"
       d="M 7.6073832,3.2471941 C 7.6123956,3.0884374 7.6205913,3.0332324 7.6481586,2.972637 7.6944679,2.8708473 7.8040288,2.7550416 7.9038922,2.7023275 l 0.081758,-0.043157 H 8.561508 c 0.5744376,0 0.5760496,9.55e-5 0.6538633,0.038733 0.099739,0.049524 0.2083519,0.1581751 0.256895,0.2569839 0.032499,0.066155 0.038849,0.107362 0.043785,0.284196 l 0.00578,0.206822 H 8.5614689 7.6011128 Z m 2.0733971,0.1269082 v -0.074189 h 0.1193423 0.1193422 l 0.00875,-0.127698 c 0.00515,-0.075093 0.022212,-0.1581257 0.041425,-0.201561 0.046121,-0.1042656 0.1532592,-0.2139435 0.2603682,-0.2665432 0.08436,-0.041426 0.110544,-0.045575 0.334833,-0.053052 l 0.24332,-0.00811 0.005,-0.058863 c 0.0047,-0.056547 0.0025,-0.059314 -0.05677,-0.070309 -0.09437,-0.017501 -0.240896,-0.1025117 -0.31465,-0.1825256 -0.188996,-0.2050362 -0.214787,-0.5252655 -0.06101,-0.7574351 0.06961,-0.1050901 0.212324,-0.2081628 0.336447,-0.2429897 l 0.09913,-0.027816 -0.0011,-0.32764279 C 10.814581,0.79516429 10.808812,0.59029307 10.802462,0.5200984 10.792322,0.40810987 10.785352,0.38773701 10.745942,0.3538297 L 10.701022,0.3151875 H 9.7374139 c -0.7124602,0 -0.9745841,0.00505 -1.0060349,0.0193794 C 8.650625,0.371361 8.642615,0.4127201 8.642615,0.79291148 V 1.1424753 H 8.5696185 8.4966226 V 0.76857895 c 0,-0.41007017 0.00199,-0.42030715 0.1,-0.51227553 0.1041259,-0.097716 0.050497,-0.0933033 1.124762,-0.0925492 0.9632794,6.7619e-4 0.9912724,0.001574 1.0543864,0.0337843 0.07369,0.03761 0.104755,0.0691062 0.148041,0.15009123 0.02897,0.0542102 0.03035,0.1202079 0.03035,1.46111025 v 1.4043356 l -0.04475,0.067613 c -0.02461,0.037187 -0.07516,0.087748 -0.112324,0.1123598 l -0.06758,0.044747 -0.524358,0.00525 -0.5243574,0.00525 z M 8.3488859,2.4840453 C 8.1795078,2.4126105 8.0846095,2.3208721 8.0057336,2.152318 7.9605971,2.0558636 7.9580096,2.0396631 7.9641592,1.8920082 7.9700292,1.7510538 7.9764112,1.7239265 8.0250702,1.6331369 8.0909222,1.5102649 8.1919375,1.4138068 8.315347,1.3559548 c 0.079434,-0.037237 0.11319,-0.043155 0.2461613,-0.043155 0.1354996,0 0.1662872,0.00563 0.2550378,0.046623 0.124099,0.057322 0.2488746,0.1842739 0.3088725,0.314259 0.036446,0.07896 0.043099,0.1157752 0.043246,0.2393076 1.532e-4,0.1291108 -0.00555,0.1581894 -0.049333,0.2514773 -0.060835,0.1296256 -0.164908,0.236404 -0.2915784,0.2991568 -0.080049,0.039657 -0.1200776,0.048452 -0.2419126,0.053152 -0.1250062,0.00482 -0.1590676,1.184e-4 -0.2369544,-0.032729 z"
       id="path2" /></g></svg>
