<?xml version="1.0" encoding="UTF-8" standalone="no"?>
<!-- Created with Inkscape (http://www.inkscape.org/) -->

<svg
   width="4.5028157mm"
   height="3.1248636mm"
   viewBox="0 0 4.5028157 3.1248636"
   version="1.1"
   id="svg1"
   inkscape:version="1.3.2 (091e20e, 2023-11-25, custom)"
   sodipodi:docname="icons.svg"
   inkscape:export-filename="icons.svg"
   inkscape:export-xdpi="96"
   inkscape:export-ydpi="96"
   xml:space="preserve"
   xmlns:inkscape="http://www.inkscape.org/namespaces/inkscape"
   xmlns:sodipodi="http://sodipodi.sourceforge.net/DTD/sodipodi-0.dtd"
   xmlns="http://www.w3.org/2000/svg"
   xmlns:svg="http://www.w3.org/2000/svg"><sodipodi:namedview
     id="namedview1"
     pagecolor="#ffffff"
     bordercolor="#000000"
     borderopacity="0.25"
     inkscape:showpageshadow="2"
     inkscape:pageopacity="0.0"
     inkscape:pagecheckerboard="0"
     inkscape:deskcolor="#d1d1d1"
     inkscape:document-units="mm"
     inkscape:zoom="4.568294"
     inkscape:cx="10.507205"
     inkscape:cy="34.257865"
     inkscape:window-width="1600"
     inkscape:window-height="837"
     inkscape:window-x="-8"
     inkscape:window-y="-8"
     inkscape:window-maximized="1"
     inkscape:current-layer="layer1" /><defs
     id="defs1" /><g
     inkscape:label="Camada 1"
     inkscape:groupmode="layer"
     id="layer1"
     transform="translate(-11.721215,-0.1793435)"><path
       style="fill:#000000;stroke-width:0.437393"
       d="M 11.857132,3.2168122 C 11.743068,3.1137624 11.707727,3.0552028 11.725604,2.9988755 c 0.02202,-0.069392 2.180599,-2.11522354 2.238764,-2.12183212 0.03996,-0.00454 0.188462,0.12354772 0.613294,0.52898452 l 0.560567,0.5349753 0.0067,-0.3083358 0.0067,-0.3083357 h 0.285555 0.285554 v 0.5898218 0.5898217 l 0.250826,0.239102 c 0.147521,0.1406263 0.250677,0.2576981 0.250466,0.284254 -5.69e-4,0.070089 -0.220145,0.2768758 -0.294015,0.2768758 -0.04896,0 -0.25491,-0.184883 -0.983171,-0.882595 -0.678412,-0.6499555 -0.936036,-0.8825951 -0.977381,-0.8825951 -0.04134,0 -0.299134,0.2327235 -0.977678,0.8825951 -0.696931,0.6674825 -0.935706,0.882595 -0.979681,0.882595 -0.03344,0 -0.09924,-0.037128 -0.154883,-0.087395 z M 15.338181,1.040891 c -0.08302,-0.0830176 -0.09261,-0.10503132 -0.09261,-0.21254355 0,-0.0831208 0.02147,-0.16534005 0.06996,-0.26786227 0.07662,-0.16201683 0.07156,-0.22118772 -0.028,-0.32747039 l -0.05028,-0.0536713 h 0.07811 c 0.05702,0 0.1,0.0218942 0.159209,0.0811033 0.109033,0.10903343 0.111981,0.24359699 0.0095,0.43556456 -0.08072,0.15126198 -0.08712,0.2109615 -0.03578,0.33382555 0.04283,0.1025107 0.04293,0.1036634 0.0091,0.1036634 -0.01466,0 -0.06833,-0.041674 -0.119269,-0.092609 z"
       id="path5" /></g></svg>
