<?xml version="1.0" encoding="UTF-8" standalone="no"?>
<!-- Created with Inkscape (http://www.inkscape.org/) -->

<svg
   width="23.550289mm"
   height="23.720856mm"
   viewBox="0 0 23.550289 23.720856"
   version="1.1"
   id="svg1"
   xml:space="preserve"
   xmlns:inkscape="http://www.inkscape.org/namespaces/inkscape"
   xmlns:sodipodi="http://sodipodi.sourceforge.net/DTD/sodipodi-0.dtd"
   xmlns="http://www.w3.org/2000/svg"
   xmlns:svg="http://www.w3.org/2000/svg"><sodipodi:namedview
     id="namedview1"
     pagecolor="#ffffff"
     bordercolor="#000000"
     borderopacity="0.25"
     inkscape:showpageshadow="2"
     inkscape:pageopacity="0.0"
     inkscape:pagecheckerboard="0"
     inkscape:deskcolor="#d1d1d1"
     inkscape:document-units="mm" /><defs
     id="defs1" /><g
     inkscape:label="Camada 1"
     inkscape:groupmode="layer"
     id="layer1"
     transform="translate(-18.323691,-138.19453)"><path
       style="fill:#000000"
       d="m 19.361269,158.83199 1.037578,-3.0834 -0.375405,-0.74706 c -1.187768,-2.36368 -1.544338,-4.82107 -1.071998,-7.38793 0.345538,-1.87778 1.251289,-3.80228 2.473467,-5.25552 0.40533,-0.48196 1.21099,-1.27616 1.661798,-1.63816 2.618263,-2.10246 6.099451,-2.95776 9.430947,-2.3171 4.348842,0.8363 7.878215,4.15487 8.990631,8.45364 0.821419,3.17425 0.244402,6.56725 -1.583453,9.3111 -0.4367,0.65555 -0.821409,1.11615 -1.489231,1.78302 -1.760889,1.75839 -3.975448,2.86973 -6.434305,3.22895 -2.310683,0.33758 -4.592555,-0.0121 -6.722677,-1.03012 l -0.576178,-0.27537 -2.524359,0.80879 c -1.388398,0.44483 -2.823617,0.90414 -3.189376,1.02068 l -0.665016,0.21188 z m 12.518688,0.41722 c 1.386298,-0.24114 2.610535,-0.72434 3.738236,-1.47546 3.299952,-2.19799 4.907626,-6.07259 4.130624,-9.95509 -0.282205,-1.41012 -0.987535,-2.91589 -1.904976,-4.06684 -0.894567,-1.12225 -1.994664,-2.00132 -3.316377,-2.65006 -3.758599,-1.84484 -8.232003,-1.04897 -11.153623,1.98436 -1.373752,1.42628 -2.208212,3.08845 -2.58204,5.14319 -0.114599,0.62989 -0.114599,2.40467 0,3.03457 0.256868,1.41187 0.721756,2.61155 1.440075,3.71624 l 0.271675,0.41781 -0.59015,1.77016 c -0.324582,0.97359 -0.568774,1.77017 -0.542649,1.77017 0.02613,0 0.852931,-0.25783 1.837348,-0.57295 l 1.789847,-0.57295 0.421032,0.24779 c 1.175209,0.69164 2.466825,1.12108 3.888191,1.29275 0.554152,0.0669 1.972056,0.0208 2.572787,-0.0837 z m 1.068883,-3.76777 c -0.619519,-0.13306 -2.309845,-0.78627 -2.981981,-1.15235 -1.494315,-0.8139 -2.863573,-2.14977 -4.065907,-3.96679 -0.783371,-1.18386 -1.064472,-1.75888 -1.258896,-2.57521 -0.07845,-0.32939 -0.09045,-0.48639 -0.07376,-0.96512 0.03231,-0.92657 0.273678,-1.50929 0.903293,-2.18076 0.490664,-0.52328 0.668968,-0.58093 1.543237,-0.499 0.415228,0.0389 0.505237,0.1216 0.699902,0.64304 0.665803,1.78344 0.844734,2.29151 0.844378,2.39757 -6.45e-4,0.1921 -0.22145,0.53097 -0.631733,0.96953 -0.207156,0.22143 -0.390286,0.45695 -0.406957,0.52337 -0.03615,0.14405 0.125219,0.47806 0.507582,1.05056 0.811687,1.21532 1.83072,2.11657 3.126825,2.7654 0.676713,0.33876 0.727062,0.33544 1.11192,-0.0734 0.165101,-0.17537 0.440477,-0.49084 0.611948,-0.70105 0.384397,-0.47124 0.463955,-0.51081 0.793857,-0.39486 0.295962,0.10402 2.38931,1.21351 2.528366,1.34005 0.08218,0.0748 0.09895,0.136 0.09895,0.36121 0,0.32329 -0.13401,0.87828 -0.288725,1.19572 -0.185771,0.38115 -0.758328,0.82252 -1.411105,1.08776 -0.24309,0.0988 -1.037252,0.25008 -1.265521,0.24111 -0.05016,-0.002 -0.22372,-0.032 -0.38568,-0.0668 z"
       id="path25" /></g></svg>
